#!OML:ASF E:/inclinewalkrobotboard/Project1/Captureday1/Session1/subject1.ASF
:FULLY-SPECIFIED
:DEGREES
338
root 0 0 0 -3.373954183460925 -29.625309403469622 0.8576443265257607
lowerback 11.743437339380005 0.4524786416517389 1.8738527505487215
upperback 1.9205598692680872 0.7112134502735397 0.8682425249335053
thorax -4.4325633727518206 0.32003481272761114 -0.2749299300029655
lowerneck -11.877048124937186 -1.0676776312274605 -3.5405496819536575
upperneck 3.234686674560347 -0.850250910184231 2.2264553778398612
head 2.981903935588712 -0.44129755309373664 1.2050919745207729
rclavicle -3.0765331806428666E-15 7.671324221197503E-17
rhumerus -7.639722120811523 -1.5776832449917464 -69.80463727346188
rradius 14.027112427285495
rwrist 40.007579472317175
rhand -7.577081278316896 18.339958652570445
rfingers 7.125020000000033
rthumb 18.2752117263189 -11.329765520228772
lclavicle 4.515973819664119E-16 -1.388778943261266E-16
lhumerus 15.889379575818406 -34.33158922898514 71.66555241142235
lradius 124.82541951381992
lwrist 52.82151488254173
lhand -25.979702004682565 42.65989244503801
lfingers 7.139466685672147
lthumb 0.7019320844630599 53.01456702753918
rfemur -20.85221106246777 4.816953518276503 15.354497745201105
rtibia 49.381366039248796
rfoot -10.980567843527064 -12.796979595000456
rtoes -1.9981591817957658
lfemur -24.373956190026313 1.1500473842639654 -11.28200779362659
ltibia 53.22442035607855
lfoot -8.970619024280785 0.7046053804332715
ltoes -9.787259901145697
339
root 0 0 0 -3.3724446571657842 -29.61483706237331 0.8584485782826622
lowerback 11.740895639672711 0.4533875209364657 1.8748729331716
upperback 1.9202222604988928 0.7125535954338429 0.867651073234845
thorax -4.431506961597955 0.32071005934181335 -0.2762244510406369
lowerneck -11.876791234615677 -1.0638665382669763 -3.5380323704730827
upperneck 3.243151803008855 -0.8450277750222526 2.2207735181388557
head 2.984167409024992 -0.4388092342906156 1.2032414540266116
rclavicle -3.0762391734495537E-15 7.658998601600939E-17
rhumerus -7.638206205930766 -1.5773594587833575 -69.80419447760295
rradius 14.029770993207109
rwrist 40.00575724440391
rhand -7.578197476919707 18.338694081479108
rfingers 7.125020000000033
rthumb 18.274142690115653 -11.331027054088388
lclavicle 4.526951148589518E-16 -1.3910368406010089E-16
lhumerus 15.900068495209808 -34.32671658662109 71.6579281006483
lradius 124.82975019639119
lwrist 52.829468859879945
lhand -25.984618686278203 42.661381308079044
lfingers 7.139473023469551
lthumb 0.6971931761638697 53.013284762646364
rfemur -20.855500652438682 4.81563199601513 15.353201619184029
rtibia 49.3856061223327
rfoot -10.978131216686423 -12.79580459223125
rtoes -1.9979800676184034
lfemur -24.37253069923841 1.1475085900363013 -11.28156490230529
ltibia 53.21951187895926
lfoot -8.968778979859103 0.7048208823152846
ltoes -9.786473212249955
340
root 0 0 0 -3.371212283006854 -29.605958640489167 0.8594526808661895
lowerback 11.738675800449817 0.45413043429558475 1.8757167815166949
upperback 1.919979381519413 0.7136509839859465 0.8671447434632158
thorax -4.430527219633478 0.32126440962246716 -0.27731226835523454
lowerneck -11.876412310035803 -1.0603142335876181 -3.535746264772363
upperneck 3.2508053395335956 -0.8401609765267808 2.21557408658886
head 2.986172242795197 -0.43649884096688507 1.2015609972620167
rclavicle -3.0759915234544395E-15 7.648563886322568E-17
rhumerus -7.636805177659738 -1.5772471967207125 -69.80372983465234
rradius 14.032059972076695
rwrist 40.004201446045805
rhand -7.579195228291166 18.337632528523784
rfingers 7.125020000000033
rthumb 18.273185708220183 -11.33208458990423
lclavicle 4.537320985357704E-16 -1.3929959547245677E-16
lhumerus 15.909343853610505 -34.322957868909214 71.65150410950328
lradius 124.83424958504767
lwrist 52.83687138414035
lhand -25.988907616392886 42.662833311374314
lfingers 7.139478694203424
lthumb 0.6930618035317266 53.01209401999368
rfemur -20.86092556908631 4.813826512760123 15.350899441003422
rtibia 49.39160027590567
rfoot -10.974760415739125 -12.794437531605652
rtoes -1.9979561004750725
lfemur -24.369623339341743 1.1449634695284687 -11.281592499230262
ltibia 53.21334450115357
lfoot -8.968067431404377 0.70597656296684
ltoes -9.785297580282162
341
root 0 0 0 -3.370220193416211 -29.59856387852725 0.860589800204994
lowerback 11.736783173854601 0.45472197794763913 1.876405318840541
upperback 1.9198196710990967 0.7145271718581829 0.8667228446135726
thorax -4.429639848040039 0.3217083385878963 -0.27820810107927124
lowerneck -11.875958530860839 -1.0570575174081442 -3.533695238844545
upperneck 3.2576079701531473 -0.8356987903115218 2.2108803702683293
head 2.9879187389596114 -0.4343875395252903 1.200054185228923
rclavicle -3.0757842451022747E-15 7.639665805376229E-17
rhumerus -7.635488956766968 -1.577330920439925 -69.80323615097664
rradius 14.034003227626812
rwrist 40.0028972782211
rhand -7.580085024254979 18.336753642143155
rfingers 7.125020000000033
rthumb 18.27233127921023 -11.332959522636852
lclavicle 4.546722147572185E-16 -1.394632658708915E-16
lhumerus 15.91717691780648 -34.32017552361509 71.6462384290216
lradius 124.83865875530591
lwrist 52.84353442540018
lhand -25.992544018004217 42.66419264580219
lfingers 7.139483682782632
lthumb 0.6895612888085925 53.01102187430512
rfemur -20.867683832077535 4.811807138906132 15.347926503987592
rtibia 49.39855793487797
rfoot -10.97086983617726 -12.79295131218839
rtoes -1.998099970057884
lfemur -24.366054116368765 1.1425136303539345 -11.281871455771483
ltibia 53.20679623923269
lfoot -8.967953969840165 0.7075241960281335
ltoes -9.783992035478148
342
root 0 0 0 -3.3694251857019593 -29.592465975820915 0.8617977257431648
lowerback 11.735199323940796 0.45518373209565643 1.8769616720196127
upperback 1.919729580807251 0.7152134795212902 0.8663779671316252
thorax -4.428849477241913 0.3220572639587244 -0.27893532975516516
lowerneck -11.875465225806506 -1.0541093555466585 -3.5318713191048747
upperneck 3.2635870660084603 -0.8316579500203098 2.2066856164690183
head 2.989424200997833 -0.4324814318602659 1.1987154425869417
rclavicle -3.075613093413315E-15 7.63217065809207E-17
rhumerus -7.634234619765692 -1.577572469231372 -69.80271663054859
rradius 14.035657412302584
rwrist 40.001805161218165
rhand -7.58088499882183 18.336022636702854
rfingers 7.125020000000033
rthumb 18.271562467553423 -11.33368719403115
lclavicle 4.554954092167389E-16 -1.3959476266821975E-16
lhumerus 15.923671697941632 -34.318186008846816 71.64200090491664
lradius 124.84280189684947
lwrist 52.84938848225494
lhand -25.99556778414989 42.665427263986395
lfingers 7.1394880195805355
lthumb 0.6866524892274413 53.010078002941206
rfemur -20.875349035957857 4.809667349150863 15.344487072496555
rtibia 49.4061263636774
rfoot -10.966624370567496 -12.791384045444484
rtoes -1.9983615691709264
lfemur -24.362465137100077 1.1402623697836272 -11.282237169260336
ltibia 53.20058195943936
lfoot -8.968058279449851 0.7090525584387857
ltoes -9.782761592330889
343
root 0 0 0 -3.368786543683812 -29.58747783838908 0.8630317394716754
lowerback 11.733898727952138 0.4555379668838262 1.877406528234056
upperback 1.9196988585453767 0.7157417855799649 0.866099758895901
thorax -4.428153219630236 0.3223269451848462 -0.2795189390615051
lowerneck -11.874951052870262 -1.0514641158531595 -3.5302600161932367
upperneck 3.268799901069201 -0.8280303962037854 2.202965025912416
head 2.990710719273772 -0.4307752293328748 1.1975345197705365
rclavicle -3.0754752934859074E-15 7.626080787546464E-17
rhumerus -7.6330244584552265 -1.5779294902813437 -69.80217805940397
rradius 14.037087125062286
rwrist 40.00087930283816
rhand -7.581614780835478 18.33540281861882
rfingers 7.125020000000033
rthumb 18.27086079198444 -11.33430457033704
lclavicle 4.561955207879587E-16 -1.396955941126214E-16
lhumerus 15.929007607619312 -34.31680418756041 71.63862146480706
lradius 124.84658939802546
lwrist 52.85445729143858
lhand -25.99805670884735 42.666526949816365
lfingers 7.139491768671505
lthumb 0.6842597875739287 53.00925859192308
rfemur -20.883703251355374 4.807420588528261 15.340703140638905
rtibia 49.414169349901755
rfoot -10.962078288644344 -12.78976010670663
rtoes -1.9986796049458664
lfemur -24.359268552877978 1.138280217131352 -11.28258387691448
ltibia 53.19515791728218
lfoot -8.968146991230483 0.7103119467270052
ltoes -9.781733308795259
344
root 0 0 0 -3.368269730702254 -29.583442890866706 0.8642646586253967
lowerback 11.732855577451902 0.45580497646878293 1.8777575764699266
upperback 1.9197208955663707 0.7161408615661653 0.8658772725459194
thorax -4.427544034260821 0.3225316398806369 -0.2799825524144588
lowerneck -11.874422152557784 -1.0491039828322786 -3.5288435596463166
upperneck 3.27331172597267 -0.8247917012417134 2.1996840222221286
head 2.99179944352378 -0.42925630644274504 1.1964990282025378
rclavicle -3.07536831279713E-15 7.621398437675461E-17
rhumerus -7.631849663981601 -1.5783638822113772 -69.80162904391901
rradius 14.03834486537636
rwrist 40.00008168951728
rhand -7.582288950229543 18.33486497149267
rfingers 7.125020000000033
rthumb 18.27021251784538 -11.334840984294704
lclavicle 4.567767755635986E-16 -1.3976819967643985E-16
lhumerus 15.933385155664656 -34.31587207846 71.63593026114604
lradius 124.84999977804107
lwrist 52.8588200214277
lhand -26.000100585718855 42.667497000979864
lfingers 7.139495012308909
lthumb 0.6822961776302776 53.0085518294099
rfemur -20.892558260506018 4.805083771267823 15.336676802561836
rtibia 49.42256007409386
rfoot -10.957297212586337 -12.788107536145356
rtoes -1.999013638116839
lfemur -24.356659739088933 1.136589876360202 -11.282855704546984
ltibia 53.19071365540136
lfoot -8.968102315999506 0.7111969899585837
ltoes -9.780957067038834
345
root 0 0 0 -3.3678467299454655 -29.580233450974305 0.8654802675298454
lowerback 11.732043881219855 0.456002682207463 1.8780307284220752
upperback 1.9197904712371041 0.7164361024082702 0.8657001166017841
thorax -4.427013187363901 0.32268395732195804 -0.28034791646420193
lowerneck -11.87387978008194 -1.0470047587816331 -3.5276025593556106
upperneck 3.277187638856555 -0.8219088015332061 2.196803024637185
head 2.9927098351470214 -0.42790820691247045 1.1955954963977016
rclavicle -3.0752887615063226E-15 7.61802500855774E-17
rhumerus -7.630713150797149 -1.5788435315768812 -69.80108021730939
rradius 14.039462131117183
rwrist 39.99938799448876
rhand -7.582913723959866 18.334391107692298
rfingers 7.125020000000033
rthumb 18.269611856572347 -11.335314441696926
lclavicle 4.572499979042235E-16 -1.3981573892616482E-16
lhumerus 15.936988776200934 -34.315269184907805 71.63378126463496
lradius 124.85305262857531
lwrist 52.86257574252655
lhand -26.001783160080215 42.66835074778499
lfingers 7.139497836024821
lthumb 0.6806806883706678 53.00794293693437
rfemur -20.901653494701613 4.802717382307271 15.332529831248635
rtibia 49.43107464446315
rfoot -10.952415368520674 -12.78646470381544
rtoes -1.9993525066440068
lfemur -24.354673135257755 1.1351709846804572 -11.28303153136092
ltibia 53.18723153963699
lfoot -8.96788142870151 0.7117043142689905
ltoes -9.780424639017351
